<svg xmlns="http://www.w3.org/2000/svg" xmlns:xlink="http://www.w3.org/1999/xlink" xml:space="preserve" width="100.0px" height="100px" version="1.1" style="shape-rendering:geometricPrecision; text-rendering:geometricPrecision; image-rendering:optimizeQuality; fill-rule:evenodd; clip-rule:evenodd" viewBox="20.0 -40.0 400.0 540.0">
 <defs>
  <style type="text/css">
   
    .fil0 {fill:black}
   
  </style>
 </defs>
 <g id="Layer_x0020_1">
  <metadata id="CorelCorpID_0Corel-Layer"/>
  <path class="fil0" d="M340 176l-2 0 3 5c10,17 16,70 -1,96l0 28c0,6 -5,10 -10,10l-15 0c-6,0 -10,-4 -10,-10l0 -13 -209 0 0 13c0,6 -4,10 -10,10l-15 0c-5,0 -10,-4 -10,-10l0 -26c-18,-25 -12,-80 -2,-98l3 -5 -2 0c-8,0 -15,-6 -15,-15l0 -7c0,-5 4,-10 10,-10l25 0c7,-13 14,-26 21,-39 6,-10 21,-20 35,-20l128 0c14,0 29,10 35,20 7,13 14,26 21,39l25 0c6,0 10,5 10,10l0 7c0,9 -7,15 -15,15zm-184 68l88 0c3,0 6,3 6,6l0 0c0,3 -3,5 -6,5l-88 0c-3,0 -6,-2 -6,-5l0 0c0,-3 3,-6 6,-6zm145 -32c-11,0 -22,9 -26,20 -3,11 4,20 15,20 11,0 22,-9 25,-20 3,-11 -3,-20 -14,-20zm-202 0c11,0 22,9 26,20 3,11 -4,20 -15,20 -11,0 -22,-9 -25,-20 -3,-11 3,-20 14,-20zm105 -36l6 -9c5,-7 13,-7 21,-7l35 0c8,0 16,0 21,7l6 9 16 0 -25 -63c-3,-6 -16,-12 -20,-12l-128 0c-4,0 -17,6 -20,12l-25 63 113 0zm46 -67c12,0 21,9 21,21 0,12 -9,22 -21,22 -12,0 -22,-10 -22,-22 0,-12 10,-21 22,-21z"/>
 </g>
<text x="0.0" y="470.0" font-size="20.0" font-weight="bold" font-family="Helvetica Neue, Helvetica, Arial-Unicode, Arial, Sans-serif" fill="#000000">Created by Hadi Davodpour</text><text x="0.0" y="490.0" font-size="20.0" font-weight="bold" font-family="Helvetica Neue, Helvetica, Arial-Unicode, Arial, Sans-serif" fill="#000000">from the Noun Project</text></svg>