<svg xmlns="http://www.w3.org/2000/svg" xmlns:xlink="http://www.w3.org/1999/xlink" version="1.1" id="Layer_1" x="0px" y="0px" viewBox="5.0 -10.0 100.0 135.0" enable-background="new 0 0 100 100" xml:space="preserve" height="100px" width="100px">
<path d="M95,47.32c0,2.829-2.282,5.124-5.124,5.124c-2.817,0-5.124-2.295-5.124-5.124c0-0.727,0.155-1.402,0.422-2.015  C78.519,43.09,67.2,41.419,67.339,55.951c0.041,4.179,1.633,8.717,2.691,12.631l-1.58-2.741l-3.851,6.691l-3.86-6.691l-3.862,6.691  l-3.862-6.691l-3.863,6.691l-3.848-6.691l-3.864,6.691l-3.861-6.691l-3.864,6.691l-3.261-5.659  c1.004-3.492,2.179-7.341,2.204-10.921c0.141-14.532-11.192-12.861-17.831-10.646c0.267,0.613,0.406,1.288,0.406,2.015  c0,2.829-2.292,5.124-5.11,5.124C7.281,52.444,5,50.149,5,47.32c0-2.843,2.281-5.126,5.124-5.126c0.992,0,1.937,0.282,2.74,0.806  c2.32-2.704,6.221-5.711,12.097-5.711c10.707,0,10.312,6.858,16.825,7.111c3.695,0.154,5.774-8.016,6.894-15.064  c-2.192-0.573-3.81-2.577-3.81-4.945c0-2.754,2.192-5.012,4.932-5.113c0.064-0.013,0.128-0.013,0.205-0.013  c0.051,0,0.126,0,0.179,0.013c2.74,0.101,4.943,2.345,4.943,5.113c0,2.367-1.617,4.371-3.81,4.958  c1.109,7.047,3.199,15.205,6.894,15.051c6.516-0.253,6.119-7.111,16.813-7.111c5.891,0,9.79,3.007,12.108,5.711  c0.807-0.524,1.736-0.806,2.742-0.806C92.718,42.194,95,44.477,95,47.32z M70.898,74.604l-2.447-4.234l-3.851,6.691l-3.86-6.691  l-3.862,6.691l-3.862-6.691l-3.863,6.691l-3.848-6.691l-3.864,6.691l-3.861-6.691l-3.864,6.691l-3.744-6.499  c-1.569,5.747-2.016,10.172,5.213,10.172c12.132,0,14.824,0,14.824,0s2.663,0,14.808,0C70.22,80.735,71.329,78.261,70.898,74.604z"/>
<text x="0.0" y="117.5" font-size="5.0" font-weight="bold" font-family="Helvetica Neue, Helvetica, Arial-Unicode, Arial, Sans-serif" fill="#000000">Created by Abby Milberg</text><text x="0.0" y="122.5" font-size="5.0" font-weight="bold" font-family="Helvetica Neue, Helvetica, Arial-Unicode, Arial, Sans-serif" fill="#000000">from the Noun Project</text></svg>