<svg xmlns="http://www.w3.org/2000/svg" xmlns:xlink="http://www.w3.org/1999/xlink" version="1.1" id="Layer_1" x="0px" y="0px" width="100px" height="100px" viewBox="5.0 -10.0 100.0 135.0" enable-background="new 0 0 100 100" xml:space="preserve">
<path d="M90,40h-1.26c-0.945-3.67-2.404-7.13-4.284-10.313l0.9-0.9c3.905-3.905,3.905-10.237,0-14.142  c-3.905-3.905-10.237-3.905-14.142,0l-0.9,0.9C67.13,13.664,63.67,12.205,60,11.26V10c0-5.523-4.477-10-10-10S40,4.477,40,10v1.26  c-3.67,0.945-7.13,2.404-10.313,4.284l-0.9-0.9c-3.905-3.905-10.237-3.905-14.142,0c-3.905,3.905-3.905,10.237,0,14.142l0.9,0.9  C13.664,32.87,12.205,36.33,11.26,40H10C4.477,40,0,44.477,0,50c0,5.523,4.477,10,10,10h1.26c0.945,3.67,2.404,7.13,4.284,10.313  l-0.9,0.9c-3.905,3.905-3.905,10.237,0,14.142c3.905,3.905,10.237,3.905,14.142,0l0.9-0.9c3.183,1.88,6.644,3.34,10.313,4.284V90  c0,5.523,4.477,10,10,10s10-4.477,10-10v-1.26c3.67-0.945,7.13-2.404,10.313-4.284l0.9,0.9c3.905,3.905,10.237,3.905,14.142,0  c3.905-3.905,3.905-10.237,0-14.142l-0.9-0.9c1.88-3.183,3.34-6.644,4.284-10.313H90c5.523,0,10-4.477,10-10  C100,44.477,95.523,40,90,40z M75,50c0,13.807-11.193,25-25,25S25,63.807,25,50s11.193-25,25-25S75,36.193,75,50z"/>
<circle cx="50" cy="50" r="10"/>
<text x="0.0" y="117.5" font-size="5.0" font-weight="bold" font-family="Helvetica Neue, Helvetica, Arial-Unicode, Arial, Sans-serif" fill="#000000">Created by Darren Barone</text><text x="0.0" y="122.5" font-size="5.0" font-weight="bold" font-family="Helvetica Neue, Helvetica, Arial-Unicode, Arial, Sans-serif" fill="#000000">from the Noun Project</text></svg>